<svg xmlns="http://www.w3.org/2000/svg" viewBox="0 0 1200 720" width="1200" height="720" role="img" aria-label="stack">
  <style>
    text{paint-order:stroke}
    @media (prefers-reduced-motion: reduce){*{animation:none !important}}
  </style>
  <defs>
    <pattern id="stack-dots" width="26" height="26" patternUnits="userSpaceOnUse">
      <circle cx="2" cy="2" r="1.4" fill="#ffffff" opacity="0.05"/>
    </pattern>
    <linearGradient id="stack-bg" x1="0" y1="0" x2="1" y2="1">
      <stop offset="0" stop-color="#0b1226"/><stop offset="1" stop-color="#070b16"/>
    </linearGradient>
    <linearGradient id="stack-hair" x1="0" y1="0" x2="1" y2="0">
      <stop offset="0" stop-color="#247bff">
        <animate attributeName="stop-color" values="#247bff;#7a5cff;#247bff" keyTimes="0;0.5;1" dur="7s" repeatCount="indefinite"/>
      </stop>
      <stop offset="0.5" stop-color="#7a5cff">
        <animate attributeName="stop-color" values="#7a5cff;#ff354f;#7a5cff" keyTimes="0;0.5;1" dur="7s" repeatCount="indefinite"/>
      </stop>
      <stop offset="1" stop-color="#ff354f">
        <animate attributeName="stop-color" values="#ff354f;#247bff;#ff354f" keyTimes="0;0.5;1" dur="7s" repeatCount="indefinite"/>
      </stop>
    </linearGradient>
  </defs>
  <rect width="1200" height="720" rx="28" fill="url(#stack-bg)"/>
  <rect width="1200" height="720" rx="28" fill="url(#stack-dots)"/>
  <ellipse cx="144.0" cy="57.6" rx="260" ry="150" fill="#247bff" opacity="0.10"/>
  <ellipse cx="1104.0" cy="684.0" rx="300" ry="170" fill="#ff354f" opacity="0.08"/>
  <rect x="2" y="2" width="1196" height="716" rx="26" fill="none" stroke="url(#stack-hair)" stroke-width="2.5" opacity="0.85"/>
  <text x="70" y="100" font-family="'Segoe UI',system-ui,-apple-system,'Helvetica Neue',Arial,sans-serif" font-size="40" font-weight="900" fill="#f2f5fa" letter-spacing="3">MY STACK</text>
  <rect x="70" y="118" width="90" height="5" rx="2.5" fill="#ffd166"/>
  <text x="1050" y="100" font-family="'JetBrains Mono','Fira Code','Cascadia Code',Consolas,monospace" font-size="20" fill="#8b93a7" text-anchor="end">orbiting daily</text>
  <g transform="rotate(-8 600 260)">
        <path d="M 220,260 a 380,130 0 1,0 760,0 a 380,130 0 1,0 -760,0" fill="none" stroke="#247bff" stroke-width="2" opacity="0.35" stroke-dasharray="10 8"/>
        <g>
          <animateMotion dur="26s" begin="0.0s" repeatCount="indefinite" path="M 220,260 a 380,130 0 1,0 760,0 a 380,130 0 1,0 -760,0"/>
          <rect x="-42.0" y="-17" width="84" height="34" rx="17" fill="#0b1226" stroke="#247bff" stroke-width="1.6" opacity="0.95"/>
          <text x="0" y="6" font-family="'JetBrains Mono','Fira Code','Cascadia Code',Consolas,monospace" font-size="16" font-weight="700" fill="#f2f5fa" text-anchor="middle">Python</text>
        </g><g>
          <animateMotion dur="26s" begin="-6.5s" repeatCount="indefinite" path="M 220,260 a 380,130 0 1,0 760,0 a 380,130 0 1,0 -760,0"/>
          <rect x="-61.0" y="-17" width="122" height="34" rx="17" fill="#0b1226" stroke="#247bff" stroke-width="1.6" opacity="0.95"/>
          <text x="0" y="6" font-family="'JetBrains Mono','Fira Code','Cascadia Code',Consolas,monospace" font-size="16" font-weight="700" fill="#f2f5fa" text-anchor="middle">TypeScript</text>
        </g><g>
          <animateMotion dur="26s" begin="-13.0s" repeatCount="indefinite" path="M 220,260 a 380,130 0 1,0 760,0 a 380,130 0 1,0 -760,0"/>
          <rect x="-61.0" y="-17" width="122" height="34" rx="17" fill="#0b1226" stroke="#247bff" stroke-width="1.6" opacity="0.95"/>
          <text x="0" y="6" font-family="'JetBrains Mono','Fira Code','Cascadia Code',Consolas,monospace" font-size="16" font-weight="700" fill="#f2f5fa" text-anchor="middle">JavaScript</text>
        </g><g>
          <animateMotion dur="26s" begin="-19.5s" repeatCount="indefinite" path="M 220,260 a 380,130 0 1,0 760,0 a 380,130 0 1,0 -760,0"/>
          <rect x="-18.0" y="-17" width="36" height="34" rx="17" fill="#0b1226" stroke="#247bff" stroke-width="1.6" opacity="0.95"/>
          <text x="0" y="6" font-family="'JetBrains Mono','Fira Code','Cascadia Code',Consolas,monospace" font-size="16" font-weight="700" fill="#f2f5fa" text-anchor="middle">C</text>
        </g>
      </g><g transform="rotate(-8 600 260)">
        <path d="M 300,260 a 300,100 0 1,0 600,0 a 300,100 0 1,0 -600,0" fill="none" stroke="#ff354f" stroke-width="2" opacity="0.35" stroke-dasharray="10 8"/>
        <g>
          <animateMotion dur="20s" begin="-2.0s" repeatCount="indefinite" path="M 300,260 a 300,100 0 1,0 600,0 a 300,100 0 1,0 -600,0"/>
          <rect x="-46.5" y="-17" width="93" height="34" rx="17" fill="#0b1226" stroke="#ff354f" stroke-width="1.6" opacity="0.95"/>
          <text x="0" y="6" font-family="'JetBrains Mono','Fira Code','Cascadia Code',Consolas,monospace" font-size="16" font-weight="700" fill="#f2f5fa" text-anchor="middle">FastAPI</text>
        </g><g>
          <animateMotion dur="20s" begin="-7.0s" repeatCount="indefinite" path="M 300,260 a 300,100 0 1,0 600,0 a 300,100 0 1,0 -600,0"/>
          <rect x="-37.0" y="-17" width="74" height="34" rx="17" fill="#0b1226" stroke="#ff354f" stroke-width="1.6" opacity="0.95"/>
          <text x="0" y="6" font-family="'JetBrains Mono','Fira Code','Cascadia Code',Consolas,monospace" font-size="16" font-weight="700" fill="#f2f5fa" text-anchor="middle">React</text>
        </g><g>
          <animateMotion dur="20s" begin="-12.0s" repeatCount="indefinite" path="M 300,260 a 300,100 0 1,0 600,0 a 300,100 0 1,0 -600,0"/>
          <rect x="-61.0" y="-17" width="122" height="34" rx="17" fill="#0b1226" stroke="#ff354f" stroke-width="1.6" opacity="0.95"/>
          <text x="0" y="6" font-family="'JetBrains Mono','Fira Code','Cascadia Code',Consolas,monospace" font-size="16" font-weight="700" fill="#f2f5fa" text-anchor="middle">PostgreSQL</text>
        </g><g>
          <animateMotion dur="20s" begin="-17.0s" repeatCount="indefinite" path="M 300,260 a 300,100 0 1,0 600,0 a 300,100 0 1,0 -600,0"/>
          <rect x="-42.0" y="-17" width="84" height="34" rx="17" fill="#0b1226" stroke="#ff354f" stroke-width="1.6" opacity="0.95"/>
          <text x="0" y="6" font-family="'JetBrains Mono','Fira Code','Cascadia Code',Consolas,monospace" font-size="16" font-weight="700" fill="#f2f5fa" text-anchor="middle">Docker</text>
        </g>
      </g><g transform="rotate(-8 600 260)">
        <path d="M 380,260 a 220,74 0 1,0 440,0 a 220,74 0 1,0 -440,0" fill="none" stroke="#ffd166" stroke-width="2" opacity="0.35" stroke-dasharray="10 8"/>
        <g>
          <animateMotion dur="15s" begin="-1.0s" repeatCount="indefinite" path="M 380,260 a 220,74 0 1,0 440,0 a 220,74 0 1,0 -440,0"/>
          <rect x="-56.0" y="-17" width="112" height="34" rx="17" fill="#0b1226" stroke="#ffd166" stroke-width="1.6" opacity="0.95"/>
          <text x="0" y="6" font-family="'JetBrains Mono','Fira Code','Cascadia Code',Consolas,monospace" font-size="16" font-weight="700" fill="#f2f5fa" text-anchor="middle">LangGraph</text>
        </g><g>
          <animateMotion dur="15s" begin="-4.75s" repeatCount="indefinite" path="M 380,260 a 220,74 0 1,0 440,0 a 220,74 0 1,0 -440,0"/>
          <rect x="-27.5" y="-17" width="55" height="34" rx="17" fill="#0b1226" stroke="#ffd166" stroke-width="1.6" opacity="0.95"/>
          <text x="0" y="6" font-family="'JetBrains Mono','Fira Code','Cascadia Code',Consolas,monospace" font-size="16" font-weight="700" fill="#f2f5fa" text-anchor="middle">MCP</text>
        </g><g>
          <animateMotion dur="15s" begin="-8.5s" repeatCount="indefinite" path="M 380,260 a 220,74 0 1,0 440,0 a 220,74 0 1,0 -440,0"/>
          <rect x="-70.5" y="-17" width="141" height="34" rx="17" fill="#0b1226" stroke="#ffd166" stroke-width="1.6" opacity="0.95"/>
          <text x="0" y="6" font-family="'JetBrains Mono','Fira Code','Cascadia Code',Consolas,monospace" font-size="16" font-weight="700" fill="#f2f5fa" text-anchor="middle">scikit-learn</text>
        </g><g>
          <animateMotion dur="15s" begin="-12.25s" repeatCount="indefinite" path="M 380,260 a 220,74 0 1,0 440,0 a 220,74 0 1,0 -440,0"/>
          <rect x="-61.0" y="-17" width="122" height="34" rx="17" fill="#0b1226" stroke="#ffd166" stroke-width="1.6" opacity="0.95"/>
          <text x="0" y="6" font-family="'JetBrains Mono','Fira Code','Cascadia Code',Consolas,monospace" font-size="16" font-weight="700" fill="#f2f5fa" text-anchor="middle">Gemini API</text>
        </g>
      </g>
  <circle cx="600" cy="260" r="80" fill="none" stroke="#247bff" stroke-width="2" stroke-dasharray="6 10" opacity="0.6">
    <animateTransform attributeName="transform" type="rotate" from="0 600 260" to="360 600 260" dur="30s" repeatCount="indefinite"/>
  </circle>
  <circle cx="600" cy="260" r="64" fill="#0b1226" stroke="url(#stack-hair)" stroke-width="3"/>
  <circle cx="600" cy="260" r="64" fill="#247bff" opacity="0.12">
    <animate attributeName="opacity" values="0.12;0.25;0.12" keyTimes="0;0.5;1" dur="4s" repeatCount="indefinite"/>
  </circle>
  <text x="600" y="272" font-family="'Segoe UI',system-ui,-apple-system,'Helvetica Neue',Arial,sans-serif" font-size="34" font-weight="900" fill="#f2f5fa" text-anchor="middle">MR</text>
  <text x="70" y="504" font-family="'JetBrains Mono','Fira Code','Cascadia Code',Consolas,monospace" font-size="15" fill="#247bff" letter-spacing="2">LANGUAGES</text><rect x="250" y="482" width="89" height="30" rx="15" fill="#ffffff" opacity="0.05"/>
            <rect x="250" y="482" width="89" height="30" rx="15" fill="none" stroke="#247bff" stroke-width="1.2" opacity="0.55"/>
            <text x="294.5" y="503" font-family="'JetBrains Mono','Fira Code','Cascadia Code',Consolas,monospace" font-size="14" fill="#f2f5fa" text-anchor="middle">Python</text><rect x="347" y="482" width="131" height="30" rx="15" fill="#ffffff" opacity="0.05"/>
            <rect x="347" y="482" width="131" height="30" rx="15" fill="none" stroke="#247bff" stroke-width="1.2" opacity="0.55"/>
            <text x="412.5" y="503" font-family="'JetBrains Mono','Fira Code','Cascadia Code',Consolas,monospace" font-size="14" fill="#f2f5fa" text-anchor="middle">TypeScript</text><rect x="486" y="482" width="131" height="30" rx="15" fill="#ffffff" opacity="0.05"/>
            <rect x="486" y="482" width="131" height="30" rx="15" fill="none" stroke="#247bff" stroke-width="1.2" opacity="0.55"/>
            <text x="551.5" y="503" font-family="'JetBrains Mono','Fira Code','Cascadia Code',Consolas,monospace" font-size="14" fill="#f2f5fa" text-anchor="middle">JavaScript</text><rect x="625" y="482" width="58" height="30" rx="15" fill="#ffffff" opacity="0.05"/>
            <rect x="625" y="482" width="58" height="30" rx="15" fill="none" stroke="#247bff" stroke-width="1.2" opacity="0.55"/>
            <text x="654.0" y="503" font-family="'JetBrains Mono','Fira Code','Cascadia Code',Consolas,monospace" font-size="14" fill="#f2f5fa" text-anchor="middle">SQL</text><rect x="691" y="482" width="36" height="30" rx="15" fill="#ffffff" opacity="0.05"/>
            <rect x="691" y="482" width="36" height="30" rx="15" fill="none" stroke="#247bff" stroke-width="1.2" opacity="0.55"/>
            <text x="709.0" y="503" font-family="'JetBrains Mono','Fira Code','Cascadia Code',Consolas,monospace" font-size="14" fill="#f2f5fa" text-anchor="middle">C</text><text x="70" y="548" font-family="'JetBrains Mono','Fira Code','Cascadia Code',Consolas,monospace" font-size="15" fill="#ff354f" letter-spacing="2">AI / ML</text><rect x="250" y="526" width="120" height="30" rx="15" fill="#ffffff" opacity="0.05"/>
            <rect x="250" y="526" width="120" height="30" rx="15" fill="none" stroke="#ff354f" stroke-width="1.2" opacity="0.55"/>
            <text x="310.0" y="547" font-family="'JetBrains Mono','Fira Code','Cascadia Code',Consolas,monospace" font-size="14" fill="#f2f5fa" text-anchor="middle">LangGraph</text><rect x="378" y="526" width="58" height="30" rx="15" fill="#ffffff" opacity="0.05"/>
            <rect x="378" y="526" width="58" height="30" rx="15" fill="none" stroke="#ff354f" stroke-width="1.2" opacity="0.55"/>
            <text x="407.0" y="547" font-family="'JetBrains Mono','Fira Code','Cascadia Code',Consolas,monospace" font-size="14" fill="#f2f5fa" text-anchor="middle">MCP</text><rect x="444" y="526" width="131" height="30" rx="15" fill="#ffffff" opacity="0.05"/>
            <rect x="444" y="526" width="131" height="30" rx="15" fill="none" stroke="#ff354f" stroke-width="1.2" opacity="0.55"/>
            <text x="509.5" y="547" font-family="'JetBrains Mono','Fira Code','Cascadia Code',Consolas,monospace" font-size="14" fill="#f2f5fa" text-anchor="middle">Gemini API</text><rect x="583" y="526" width="152" height="30" rx="15" fill="#ffffff" opacity="0.05"/>
            <rect x="583" y="526" width="152" height="30" rx="15" fill="none" stroke="#ff354f" stroke-width="1.2" opacity="0.55"/>
            <text x="659.0" y="547" font-family="'JetBrains Mono','Fira Code','Cascadia Code',Consolas,monospace" font-size="14" fill="#f2f5fa" text-anchor="middle">scikit-learn</text><rect x="743" y="526" width="89" height="30" rx="15" fill="#ffffff" opacity="0.05"/>
            <rect x="743" y="526" width="89" height="30" rx="15" fill="none" stroke="#ff354f" stroke-width="1.2" opacity="0.55"/>
            <text x="787.5" y="547" font-family="'JetBrains Mono','Fira Code','Cascadia Code',Consolas,monospace" font-size="14" fill="#f2f5fa" text-anchor="middle">OpenCV</text><text x="70" y="592" font-family="'JetBrains Mono','Fira Code','Cascadia Code',Consolas,monospace" font-size="15" fill="#ffd166" letter-spacing="2">BACKEND / DATA</text><rect x="250" y="570" width="100" height="30" rx="15" fill="#ffffff" opacity="0.05"/>
            <rect x="250" y="570" width="100" height="30" rx="15" fill="none" stroke="#ffd166" stroke-width="1.2" opacity="0.55"/>
            <text x="300.0" y="591" font-family="'JetBrains Mono','Fira Code','Cascadia Code',Consolas,monospace" font-size="14" fill="#f2f5fa" text-anchor="middle">FastAPI</text><rect x="358" y="570" width="100" height="30" rx="15" fill="#ffffff" opacity="0.05"/>
            <rect x="358" y="570" width="100" height="30" rx="15" fill="none" stroke="#ffd166" stroke-width="1.2" opacity="0.55"/>
            <text x="408.0" y="591" font-family="'JetBrains Mono','Fira Code','Cascadia Code',Consolas,monospace" font-size="14" fill="#f2f5fa" text-anchor="middle">Node.js</text><rect x="466" y="570" width="100" height="30" rx="15" fill="#ffffff" opacity="0.05"/>
            <rect x="466" y="570" width="100" height="30" rx="15" fill="none" stroke="#ffd166" stroke-width="1.2" opacity="0.55"/>
            <text x="516.0" y="591" font-family="'JetBrains Mono','Fira Code','Cascadia Code',Consolas,monospace" font-size="14" fill="#f2f5fa" text-anchor="middle">Express</text><rect x="574" y="570" width="131" height="30" rx="15" fill="#ffffff" opacity="0.05"/>
            <rect x="574" y="570" width="131" height="30" rx="15" fill="none" stroke="#ffd166" stroke-width="1.2" opacity="0.55"/>
            <text x="639.5" y="591" font-family="'JetBrains Mono','Fira Code','Cascadia Code',Consolas,monospace" font-size="14" fill="#f2f5fa" text-anchor="middle">PostgreSQL</text><rect x="713" y="570" width="131" height="30" rx="15" fill="#ffffff" opacity="0.05"/>
            <rect x="713" y="570" width="131" height="30" rx="15" fill="none" stroke="#ffd166" stroke-width="1.2" opacity="0.55"/>
            <text x="778.5" y="591" font-family="'JetBrains Mono','Fira Code','Cascadia Code',Consolas,monospace" font-size="14" fill="#f2f5fa" text-anchor="middle">SQLAlchemy</text><rect x="852" y="570" width="89" height="30" rx="15" fill="#ffffff" opacity="0.05"/>
            <rect x="852" y="570" width="89" height="30" rx="15" fill="none" stroke="#ffd166" stroke-width="1.2" opacity="0.55"/>
            <text x="896.5" y="591" font-family="'JetBrains Mono','Fira Code','Cascadia Code',Consolas,monospace" font-size="14" fill="#f2f5fa" text-anchor="middle">Prisma</text><rect x="949" y="570" width="58" height="30" rx="15" fill="#ffffff" opacity="0.05"/>
            <rect x="949" y="570" width="58" height="30" rx="15" fill="none" stroke="#ffd166" stroke-width="1.2" opacity="0.55"/>
            <text x="978.0" y="591" font-family="'JetBrains Mono','Fira Code','Cascadia Code',Consolas,monospace" font-size="14" fill="#f2f5fa" text-anchor="middle">JWT</text><text x="70" y="636" font-family="'JetBrains Mono','Fira Code','Cascadia Code',Consolas,monospace" font-size="15" fill="#7a5cff" letter-spacing="2">FRONTEND</text><rect x="250" y="614" width="110" height="30" rx="15" fill="#ffffff" opacity="0.05"/>
            <rect x="250" y="614" width="110" height="30" rx="15" fill="none" stroke="#7a5cff" stroke-width="1.2" opacity="0.55"/>
            <text x="305.0" y="635" font-family="'JetBrains Mono','Fira Code','Cascadia Code',Consolas,monospace" font-size="14" fill="#f2f5fa" text-anchor="middle">React 19</text><rect x="368" y="614" width="131" height="30" rx="15" fill="#ffffff" opacity="0.05"/>
            <rect x="368" y="614" width="131" height="30" rx="15" fill="none" stroke="#7a5cff" stroke-width="1.2" opacity="0.55"/>
            <text x="433.5" y="635" font-family="'JetBrains Mono','Fira Code','Cascadia Code',Consolas,monospace" font-size="14" fill="#f2f5fa" text-anchor="middle">Next.js 15</text><rect x="507" y="614" width="110" height="30" rx="15" fill="#ffffff" opacity="0.05"/>
            <rect x="507" y="614" width="110" height="30" rx="15" fill="none" stroke="#7a5cff" stroke-width="1.2" opacity="0.55"/>
            <text x="562.0" y="635" font-family="'JetBrains Mono','Fira Code','Cascadia Code',Consolas,monospace" font-size="14" fill="#f2f5fa" text-anchor="middle">Tailwind</text><rect x="625" y="614" width="110" height="30" rx="15" fill="#ffffff" opacity="0.05"/>
            <rect x="625" y="614" width="110" height="30" rx="15" fill="none" stroke="#7a5cff" stroke-width="1.2" opacity="0.55"/>
            <text x="680.0" y="635" font-family="'JetBrains Mono','Fira Code','Cascadia Code',Consolas,monospace" font-size="14" fill="#f2f5fa" text-anchor="middle">Three.js</text><rect x="743" y="614" width="68" height="30" rx="15" fill="#ffffff" opacity="0.05"/>
            <rect x="743" y="614" width="68" height="30" rx="15" fill="none" stroke="#7a5cff" stroke-width="1.2" opacity="0.55"/>
            <text x="777.0" y="635" font-family="'JetBrains Mono','Fira Code','Cascadia Code',Consolas,monospace" font-size="14" fill="#f2f5fa" text-anchor="middle">Vite</text><text x="70" y="680" font-family="'JetBrains Mono','Fira Code','Cascadia Code',Consolas,monospace" font-size="15" fill="#2dd4bf" letter-spacing="2">TOOLS</text><rect x="250" y="658" width="89" height="30" rx="15" fill="#ffffff" opacity="0.05"/>
            <rect x="250" y="658" width="89" height="30" rx="15" fill="none" stroke="#2dd4bf" stroke-width="1.2" opacity="0.55"/>
            <text x="294.5" y="679" font-family="'JetBrains Mono','Fira Code','Cascadia Code',Consolas,monospace" font-size="14" fill="#f2f5fa" text-anchor="middle">Docker</text><rect x="347" y="658" width="58" height="30" rx="15" fill="#ffffff" opacity="0.05"/>
            <rect x="347" y="658" width="58" height="30" rx="15" fill="none" stroke="#2dd4bf" stroke-width="1.2" opacity="0.55"/>
            <text x="376.0" y="679" font-family="'JetBrains Mono','Fira Code','Cascadia Code',Consolas,monospace" font-size="14" fill="#f2f5fa" text-anchor="middle">Git</text><rect x="413" y="658" width="78" height="30" rx="15" fill="#ffffff" opacity="0.05"/>
            <rect x="413" y="658" width="78" height="30" rx="15" fill="none" stroke="#2dd4bf" stroke-width="1.2" opacity="0.55"/>
            <text x="452.0" y="679" font-family="'JetBrains Mono','Fira Code','Cascadia Code',Consolas,monospace" font-size="14" fill="#f2f5fa" text-anchor="middle">Linux</text><rect x="499" y="658" width="100" height="30" rx="15" fill="#ffffff" opacity="0.05"/>
            <rect x="499" y="658" width="100" height="30" rx="15" fill="none" stroke="#2dd4bf" stroke-width="1.2" opacity="0.55"/>
            <text x="549.0" y="679" font-family="'JetBrains Mono','Fira Code','Cascadia Code',Consolas,monospace" font-size="14" fill="#f2f5fa" text-anchor="middle">Postman</text><rect x="607" y="658" width="89" height="30" rx="15" fill="#ffffff" opacity="0.05"/>
            <rect x="607" y="658" width="89" height="30" rx="15" fill="none" stroke="#2dd4bf" stroke-width="1.2" opacity="0.55"/>
            <text x="651.5" y="679" font-family="'JetBrains Mono','Fira Code','Cascadia Code',Consolas,monospace" font-size="14" fill="#f2f5fa" text-anchor="middle">Vercel</text><rect x="704" y="658" width="89" height="30" rx="15" fill="#ffffff" opacity="0.05"/>
            <rect x="704" y="658" width="89" height="30" rx="15" fill="none" stroke="#2dd4bf" stroke-width="1.2" opacity="0.55"/>
            <text x="748.5" y="679" font-family="'JetBrains Mono','Fira Code','Cascadia Code',Consolas,monospace" font-size="14" fill="#f2f5fa" text-anchor="middle">Render</text>
</svg>